<?xml version="1.0" encoding="UTF-8" ?>
<!DOCTYPE svg PUBLIC "-//W3C//DTD SVG 1.1//EN" "http://www.w3.org/Graphics/SVG/1.1/DTD/svg11.dtd">
<svg width="542pt" height="2085pt" viewBox="0 0 542 2085" version="1.1" xmlns="http://www.w3.org/2000/svg">
<g id="#f9f9f9ff">
<path fill="#f9f9f9" opacity="1.00" d=" M 0.00 0.00 L 542.00 0.00 L 542.00 250.23 C 362.55 353.83 182.97 457.20 3.52 560.79 C 2.44 561.45 1.19 561.71 0.00 562.09 L 0.00 0.00 Z" />
<path fill="#f9f9f9" opacity="1.00" d=" M 122.87 732.96 C 262.58 652.34 402.31 571.74 542.00 491.09 L 542.00 765.10 C 361.76 868.95 181.63 973.01 1.45 1076.95 C 0.78 1072.65 1.03 1068.30 1.00 1063.97 C 0.96 977.06 1.05 890.15 0.96 803.24 C 41.66 779.92 82.23 756.38 122.87 732.96 Z" />
<path fill="#f9f9f9" opacity="1.00" d=" M 20.69 1306.68 C 194.47 1206.51 368.22 1106.28 542.00 1006.13 L 542.00 2084.02 C 361.68 2084.01 181.35 2084.05 1.03 2083.99 C 0.96 1853.99 1.02 1624.00 1.00 1394.00 C 1.06 1368.59 0.88 1343.19 1.10 1317.79 C 7.76 1314.35 14.17 1310.38 20.69 1306.68 Z" />
</g>
<g id="#d33e26ff">
<path fill="#d33e26" opacity="1.00" d=" M 3.52 560.79 C 182.97 457.20 362.55 353.83 542.00 250.23 L 542.00 491.09 C 402.31 571.74 262.58 652.34 122.87 732.96 C 82.23 756.38 41.66 779.92 0.96 803.24 L 0.00 803.67 L 0.00 562.09 C 1.19 561.71 2.44 561.45 3.52 560.79 Z" />
<path fill="#d33e26" opacity="1.00" d=" M 1.45 1076.95 C 181.63 973.01 361.76 868.95 542.00 765.10 L 542.00 1006.13 C 368.22 1106.28 194.47 1206.51 20.69 1306.68 C 14.17 1310.38 7.76 1314.35 1.10 1317.79 L 0.00 1318.11 L 0.00 1077.83 C 0.36 1077.61 1.09 1077.17 1.45 1076.95 Z" />
</g>
<g id="#c4c5c6ff">
<path fill="#c4c5c6" opacity="1.00" d=" M 0.00 803.67 L 0.96 803.24 C 1.05 890.15 0.96 977.06 1.00 1063.97 C 1.03 1068.30 0.78 1072.65 1.45 1076.95 C 1.09 1077.17 0.36 1077.61 0.00 1077.83 L 0.00 803.67 Z" />
</g>
<g id="#c5c6c8ff">
<path fill="#c5c6c8" opacity="1.00" d=" M 0.00 1318.11 L 1.10 1317.79 C 0.88 1343.19 1.06 1368.59 1.00 1394.00 C 1.02 1624.00 0.96 1853.99 1.03 2083.99 C 181.35 2084.05 361.68 2084.01 542.00 2084.02 L 542.00 2085.00 L 0.00 2085.00 L 0.00 1318.11 Z" />
</g>
</svg>
