<?xml version="1.0" encoding="UTF-8" ?>
<!DOCTYPE svg PUBLIC "-//W3C//DTD SVG 1.1//EN" "http://www.w3.org/Graphics/SVG/1.1/DTD/svg11.dtd">
<svg width="905pt" height="792pt" viewBox="0 0 905 792" version="1.1" xmlns="http://www.w3.org/2000/svg">
<g id="#ffffffff">
<path fill="#ffffff" opacity="1.00" d=" M 0.00 0.00 L 448.50 0.00 C 438.16 1.30 428.80 7.76 423.84 16.90 C 286.16 255.49 148.36 494.01 10.73 732.63 C 6.59 740.20 1.05 747.43 0.00 756.25 L 0.00 0.00 Z" />
<path fill="#ffffff" opacity="1.00" d=" M 455.60 0.00 L 905.00 0.00 L 905.00 758.46 C 903.78 753.73 902.77 748.85 900.35 744.57 C 760.06 501.57 619.76 258.57 479.47 15.58 C 474.49 7.01 465.40 1.21 455.60 0.00 Z" />
<path fill="#ffffff" opacity="1.00" d=" M 896.71 780.73 C 901.59 775.48 903.42 768.39 905.00 761.60 L 905.00 792.00 L 875.69 792.00 C 883.62 790.59 891.48 787.04 896.71 780.73 Z" />
<path fill="#ffffff" opacity="1.00" d=" M 0.00 764.51 C 1.24 771.06 4.07 777.48 8.86 782.22 C 13.96 787.64 21.14 790.62 28.35 792.00 L 0.00 792.00 L 0.00 764.51 Z" />
</g>
<g id="#d33e26ff">
<path fill="#d33e26" opacity="1.00" d=" M 448.50 0.00 L 455.60 0.00 C 465.40 1.21 474.49 7.01 479.47 15.58 C 619.76 258.57 760.06 501.57 900.35 744.57 C 902.77 748.85 903.78 753.73 905.00 758.46 L 905.00 761.60 C 903.42 768.39 901.59 775.48 896.71 780.73 C 891.48 787.04 883.62 790.59 875.69 792.00 L 28.35 792.00 C 21.14 790.62 13.96 787.64 8.86 782.22 C 4.07 777.48 1.24 771.06 0.00 764.51 L 0.00 756.25 C 1.05 747.43 6.59 740.20 10.73 732.63 C 148.36 494.01 286.16 255.49 423.84 16.90 C 428.80 7.76 438.16 1.30 448.50 0.00 M 451.25 160.05 C 347.99 338.87 244.68 517.65 141.45 696.48 C 192.95 696.89 244.46 696.54 295.97 696.66 C 451.58 696.61 607.20 696.76 762.81 696.58 C 659.53 517.72 556.27 338.84 453.04 159.95 C 452.48 159.00 451.88 159.04 451.25 160.05 Z" />
</g>
<g id="#f9f9f9ff">
<path fill="#f9f9f9" opacity="1.00" d=" M 451.25 160.05 C 451.88 159.04 452.48 159.00 453.04 159.95 C 556.27 338.84 659.53 517.72 762.81 696.58 C 607.20 696.76 451.58 696.61 295.97 696.66 C 244.46 696.54 192.95 696.89 141.45 696.48 C 244.68 517.65 347.99 338.87 451.25 160.05 M 414.47 368.08 C 412.95 372.94 408.47 375.94 406.63 380.62 C 404.44 384.47 399.48 385.01 395.88 387.01 C 393.59 388.26 391.80 386.35 391.41 384.20 C 392.31 381.25 394.12 376.15 390.22 374.63 C 388.32 379.53 387.63 386.01 382.16 388.32 C 379.19 384.90 379.22 380.21 378.44 376.00 C 377.28 376.96 375.81 377.80 375.40 379.36 C 374.74 382.98 376.35 386.98 374.42 390.37 C 372.31 394.18 369.75 398.52 371.10 403.02 C 372.08 406.78 371.68 411.20 368.97 414.13 C 367.23 413.85 365.59 413.16 363.93 412.61 C 361.96 415.48 362.40 418.94 363.94 421.89 C 365.97 425.64 366.94 430.75 364.20 434.39 C 362.43 437.06 358.58 437.00 355.89 435.96 C 350.93 434.15 345.46 432.02 342.91 427.04 C 341.27 424.67 340.78 420.03 336.97 420.62 C 334.71 418.06 335.34 413.95 332.29 412.00 C 329.99 415.95 329.56 420.71 331.02 425.03 C 331.24 426.52 332.79 429.74 330.02 429.49 C 327.20 427.70 325.35 423.77 321.50 424.33 C 323.19 430.45 326.34 436.63 331.96 440.00 C 337.80 443.66 344.97 443.12 351.53 444.17 C 355.70 444.65 360.11 447.23 361.07 451.60 C 358.15 452.51 355.32 453.71 352.41 454.63 C 349.60 455.04 346.35 453.85 343.89 455.75 C 337.75 462.16 328.32 462.71 320.06 463.98 C 314.83 464.92 309.64 462.63 304.42 463.62 C 298.36 464.66 292.40 467.72 288.77 472.79 C 286.54 475.55 283.13 477.35 281.72 480.75 C 280.74 482.39 281.68 484.27 281.78 486.02 C 282.20 488.07 281.29 490.51 282.75 492.26 C 285.31 495.37 288.27 498.29 291.89 500.14 C 294.76 501.63 298.05 498.81 300.91 500.54 C 302.42 501.06 304.04 503.06 305.60 501.55 C 307.23 499.66 308.27 497.35 309.39 495.14 C 316.26 495.53 323.26 495.24 329.99 496.93 C 333.12 498.35 333.24 502.36 335.28 504.76 C 338.90 508.31 340.72 513.17 343.33 517.44 C 343.72 516.95 344.49 515.97 344.88 515.48 C 346.40 516.40 347.73 518.47 349.78 517.76 C 350.27 515.48 350.19 513.13 350.27 510.83 C 351.49 511.65 352.70 512.50 353.89 513.38 C 354.29 512.04 353.58 510.05 355.00 509.19 C 356.60 508.18 358.57 508.14 360.37 507.73 C 360.47 506.10 360.56 504.47 360.72 502.86 C 361.80 503.81 362.89 504.77 363.98 505.73 C 365.77 504.51 367.38 501.76 369.88 502.57 C 378.30 505.04 386.91 507.78 394.03 513.10 C 395.76 514.34 397.92 515.00 399.40 516.56 C 402.87 522.08 402.37 529.35 406.55 534.52 C 411.74 542.66 416.35 551.94 424.96 557.04 C 417.58 561.59 413.51 569.51 407.23 575.24 C 404.12 578.16 401.09 581.20 397.59 583.66 C 390.89 587.85 388.08 596.56 389.20 604.13 C 389.99 609.53 388.48 614.88 387.27 620.11 C 386.23 624.27 385.56 628.60 383.51 632.44 C 381.71 635.98 380.60 639.94 380.67 643.94 C 381.21 647.37 383.25 650.37 383.71 653.83 C 384.20 656.20 383.89 658.80 385.15 660.97 C 387.47 665.39 389.02 670.16 391.08 674.70 C 395.27 669.35 398.18 663.10 401.14 657.02 C 402.44 654.22 404.46 650.66 401.94 647.92 C 400.42 645.58 396.79 646.94 395.26 644.95 C 395.35 642.35 398.85 644.47 400.40 643.97 C 399.63 638.33 398.01 632.73 398.26 626.99 C 398.78 623.34 399.87 619.78 400.31 616.11 C 401.09 610.31 404.74 605.54 408.10 600.97 C 409.54 599.11 410.60 596.91 412.56 595.52 C 420.63 589.45 430.19 585.89 438.85 580.80 C 444.34 577.60 449.01 573.03 454.99 570.69 C 455.75 577.62 458.26 584.16 459.53 590.99 C 460.94 595.94 462.89 600.77 463.45 605.93 C 464.51 612.14 462.41 618.80 465.27 624.70 C 469.12 631.11 469.75 638.78 470.43 646.06 C 471.02 650.89 468.50 655.29 467.85 659.98 C 467.26 663.28 463.83 664.54 461.79 666.71 C 459.71 671.21 454.81 673.57 453.15 678.35 C 460.42 678.82 467.72 678.44 475.00 678.59 C 477.32 678.73 480.12 678.30 481.26 675.98 C 483.06 673.26 480.20 670.11 481.66 667.28 C 483.30 668.60 484.93 669.98 486.70 671.15 C 489.03 665.89 487.62 660.22 486.00 654.99 C 483.64 646.12 481.20 637.13 481.14 627.89 C 481.54 625.21 483.13 622.72 482.72 619.95 C 482.27 614.27 480.98 608.67 481.07 602.95 C 480.66 589.54 483.59 576.36 484.30 563.02 C 491.91 563.04 499.51 562.43 507.12 562.38 C 515.05 562.17 522.03 558.16 529.28 555.47 C 528.99 559.81 529.77 564.14 531.74 568.05 C 534.77 574.34 534.75 581.47 536.95 588.01 C 538.98 595.18 544.09 600.96 546.53 607.96 C 546.96 610.28 546.63 612.66 546.58 615.01 C 546.31 619.72 546.81 624.81 544.10 628.97 C 538.43 638.03 532.97 647.80 524.07 654.10 C 522.06 655.85 521.24 658.50 519.60 660.54 C 517.44 662.83 513.57 662.98 512.13 666.04 C 509.55 670.53 504.16 673.27 502.65 678.28 C 511.07 679.02 519.60 678.65 528.06 678.59 C 530.69 678.86 532.40 676.19 533.28 674.08 C 532.75 672.36 532.10 670.65 532.17 668.83 C 534.18 669.72 535.17 671.74 536.49 673.37 C 540.67 667.74 541.08 659.97 545.25 654.19 C 549.32 648.33 553.33 642.39 557.92 636.91 C 561.85 632.87 566.36 629.35 569.58 624.65 C 571.18 621.81 575.32 620.71 575.39 617.02 C 574.98 613.26 572.37 610.34 570.87 607.01 C 567.46 599.72 564.84 591.96 563.89 583.95 C 563.17 579.71 565.65 575.93 567.24 572.20 C 568.43 569.18 571.69 567.96 574.09 566.09 C 579.53 571.00 585.05 576.05 591.78 579.15 C 594.90 580.54 597.75 582.47 600.30 584.75 C 605.61 589.58 611.28 594.13 617.63 597.54 C 622.38 600.06 627.98 600.62 632.49 603.61 C 636.87 607.33 641.24 611.44 643.40 616.91 C 646.58 625.54 648.42 634.57 650.25 643.56 C 650.66 647.81 650.30 652.41 652.79 656.14 C 655.60 661.59 661.39 664.29 665.07 669.00 C 666.87 671.65 670.34 671.08 672.98 672.23 C 676.49 673.67 680.06 675.10 683.88 675.49 C 683.50 671.74 681.50 668.47 680.30 664.97 C 678.54 660.61 677.30 656.03 675.18 651.83 C 673.20 648.77 669.58 650.86 666.85 651.16 C 665.06 648.48 670.68 649.19 670.65 647.12 C 668.17 644.20 666.49 640.74 664.37 637.58 C 661.53 628.87 658.60 620.08 657.75 610.89 C 657.23 604.18 655.05 597.75 654.30 591.08 C 654.29 588.73 653.27 585.99 650.65 585.60 C 646.15 585.07 641.98 583.30 638.01 581.22 C 632.64 578.40 626.68 576.10 622.72 571.30 C 619.75 567.81 616.51 564.52 613.81 560.82 C 606.92 560.20 600.01 560.63 593.11 560.57 C 596.14 560.86 598.90 559.28 601.86 559.39 C 605.37 560.71 609.37 560.74 612.88 559.38 C 610.26 556.20 610.78 551.74 609.69 547.97 C 609.21 540.46 614.02 534.04 616.00 527.05 C 616.96 522.74 616.00 518.25 616.87 513.92 C 619.63 515.36 622.01 517.57 625.08 518.44 C 627.14 519.39 629.13 516.79 628.60 514.89 C 626.99 508.54 623.95 502.68 621.52 496.63 C 620.49 494.38 619.79 491.86 618.01 490.07 C 613.79 486.31 607.20 486.94 603.33 482.67 C 597.99 477.56 591.48 473.74 584.49 471.38 C 573.93 467.90 564.12 462.02 552.95 460.56 C 546.94 459.95 541.00 461.33 535.01 461.58 C 522.64 462.32 510.16 462.56 497.89 460.56 C 493.61 460.02 489.56 458.41 485.88 456.23 C 476.03 450.60 465.57 444.82 453.90 444.82 C 443.91 444.21 434.72 448.67 425.15 450.69 C 413.27 453.75 400.93 454.37 388.72 454.40 C 390.26 452.56 392.10 450.97 393.49 449.02 C 394.57 446.68 394.92 444.11 395.39 441.61 C 392.05 440.72 388.57 441.56 385.32 442.43 C 381.23 443.75 378.90 447.52 376.00 450.39 C 375.40 448.64 374.14 446.95 374.43 445.04 C 376.74 441.91 380.69 440.85 383.94 438.98 C 394.66 433.35 406.29 427.41 412.72 416.65 C 416.92 410.39 416.28 402.16 420.79 396.03 C 422.51 392.62 427.66 391.85 427.77 387.55 C 425.40 387.96 423.04 388.45 420.63 388.44 C 419.85 384.26 422.93 381.14 424.96 377.90 C 426.56 375.52 426.11 372.17 424.06 370.20 C 421.92 374.95 418.14 378.56 413.76 381.26 C 413.67 377.43 417.80 374.89 416.83 371.00 C 416.49 369.74 415.28 369.01 414.47 368.08 Z" />
</g>
<g id="#252122ff">
<path fill="#252122" opacity="1.00" d=" M 414.47 368.08 C 415.28 369.01 416.49 369.74 416.83 371.00 C 417.80 374.89 413.67 377.43 413.76 381.26 C 418.14 378.56 421.92 374.95 424.06 370.20 C 426.11 372.17 426.56 375.52 424.96 377.90 C 422.93 381.14 419.85 384.26 420.63 388.44 C 423.04 388.45 425.40 387.96 427.77 387.55 C 427.66 391.85 422.51 392.62 420.79 396.03 C 416.28 402.16 416.92 410.39 412.72 416.65 C 406.29 427.41 394.66 433.35 383.94 438.98 C 380.69 440.85 376.74 441.91 374.43 445.04 C 374.14 446.95 375.40 448.64 376.00 450.39 C 378.90 447.52 381.23 443.75 385.32 442.43 C 388.57 441.56 392.05 440.72 395.39 441.61 C 394.92 444.11 394.57 446.68 393.49 449.02 C 392.10 450.97 390.26 452.56 388.72 454.40 C 400.93 454.37 413.27 453.75 425.15 450.69 C 434.72 448.67 443.91 444.21 453.90 444.82 C 465.57 444.82 476.03 450.60 485.88 456.23 C 489.56 458.41 493.61 460.02 497.89 460.56 C 510.16 462.56 522.64 462.32 535.01 461.58 C 541.00 461.33 546.94 459.95 552.95 460.56 C 564.12 462.02 573.93 467.90 584.49 471.38 C 591.48 473.74 597.99 477.56 603.33 482.67 C 607.20 486.94 613.79 486.31 618.01 490.07 C 619.79 491.86 620.49 494.38 621.52 496.63 C 623.95 502.68 626.99 508.54 628.60 514.89 C 629.13 516.79 627.14 519.39 625.08 518.44 C 622.01 517.57 619.63 515.36 616.87 513.92 C 616.00 518.25 616.96 522.74 616.00 527.05 C 614.02 534.04 609.21 540.46 609.69 547.97 C 610.78 551.74 610.26 556.20 612.88 559.38 C 609.37 560.74 605.37 560.71 601.86 559.39 C 598.90 559.28 596.14 560.86 593.11 560.57 C 600.01 560.63 606.92 560.20 613.81 560.82 C 616.51 564.52 619.75 567.81 622.72 571.30 C 626.68 576.10 632.64 578.40 638.01 581.22 C 641.98 583.30 646.15 585.07 650.65 585.60 C 653.27 585.99 654.29 588.73 654.30 591.08 C 655.05 597.75 657.23 604.18 657.75 610.89 C 658.60 620.08 661.53 628.87 664.37 637.58 C 666.49 640.74 668.17 644.20 670.65 647.12 C 670.68 649.19 665.06 648.48 666.85 651.16 C 669.58 650.86 673.20 648.77 675.18 651.83 C 677.30 656.03 678.54 660.61 680.30 664.97 C 681.50 668.47 683.50 671.74 683.88 675.49 C 680.06 675.10 676.49 673.67 672.98 672.23 C 670.34 671.08 666.87 671.65 665.07 669.00 C 661.39 664.29 655.60 661.59 652.79 656.14 C 650.30 652.41 650.66 647.81 650.25 643.56 C 648.42 634.57 646.58 625.54 643.40 616.91 C 641.24 611.44 636.87 607.33 632.49 603.61 C 627.98 600.62 622.38 600.06 617.63 597.54 C 611.28 594.13 605.61 589.58 600.30 584.75 C 597.75 582.47 594.90 580.54 591.78 579.15 C 585.05 576.05 579.53 571.00 574.09 566.09 C 571.69 567.96 568.43 569.18 567.24 572.20 C 565.65 575.93 563.17 579.71 563.89 583.95 C 564.84 591.96 567.46 599.72 570.87 607.01 C 572.37 610.34 574.98 613.26 575.39 617.02 C 575.32 620.71 571.18 621.81 569.58 624.65 C 566.36 629.35 561.85 632.87 557.92 636.91 C 553.33 642.39 549.32 648.33 545.25 654.19 C 541.08 659.97 540.67 667.74 536.49 673.37 C 535.17 671.74 534.18 669.72 532.17 668.83 C 532.10 670.65 532.75 672.36 533.28 674.08 C 532.40 676.19 530.69 678.86 528.06 678.59 C 519.60 678.65 511.07 679.02 502.65 678.28 C 504.16 673.27 509.55 670.53 512.13 666.04 C 513.57 662.98 517.44 662.83 519.60 660.54 C 521.24 658.50 522.06 655.85 524.07 654.10 C 532.97 647.80 538.43 638.03 544.10 628.97 C 546.81 624.81 546.31 619.72 546.58 615.01 C 546.63 612.66 546.96 610.28 546.53 607.96 C 544.09 600.96 538.98 595.18 536.95 588.01 C 534.75 581.47 534.77 574.34 531.74 568.05 C 529.77 564.14 528.99 559.81 529.28 555.47 C 522.03 558.16 515.05 562.17 507.12 562.38 C 499.51 562.43 491.91 563.04 484.30 563.02 C 483.59 576.36 480.66 589.54 481.07 602.95 C 480.98 608.67 482.27 614.27 482.72 619.95 C 483.13 622.72 481.54 625.21 481.14 627.89 C 481.20 637.13 483.64 646.12 486.00 654.99 C 487.62 660.22 489.03 665.89 486.70 671.15 C 484.93 669.98 483.30 668.60 481.66 667.28 C 480.20 670.11 483.06 673.26 481.26 675.98 C 480.12 678.30 477.32 678.73 475.00 678.59 C 467.72 678.44 460.42 678.82 453.15 678.35 C 454.81 673.57 459.71 671.21 461.79 666.71 C 463.83 664.54 467.26 663.28 467.85 659.98 C 468.50 655.29 471.02 650.89 470.43 646.06 C 469.75 638.78 469.12 631.11 465.27 624.70 C 462.41 618.80 464.51 612.14 463.45 605.93 C 462.89 600.77 460.94 595.94 459.53 590.99 C 458.26 584.16 455.75 577.62 454.99 570.69 C 449.01 573.03 444.34 577.60 438.85 580.80 C 430.19 585.89 420.63 589.45 412.56 595.52 C 410.60 596.91 409.54 599.11 408.10 600.97 C 404.74 605.54 401.09 610.31 400.31 616.11 C 399.87 619.78 398.78 623.34 398.26 626.99 C 398.01 632.73 399.63 638.33 400.40 643.97 C 398.85 644.47 395.35 642.35 395.26 644.95 C 396.79 646.94 400.42 645.58 401.94 647.92 C 404.46 650.66 402.44 654.22 401.14 657.02 C 398.18 663.10 395.27 669.35 391.08 674.70 C 389.02 670.16 387.47 665.39 385.15 660.97 C 383.89 658.80 384.20 656.20 383.71 653.83 C 383.25 650.37 381.21 647.37 380.67 643.94 C 380.60 639.94 381.71 635.98 383.51 632.44 C 385.56 628.60 386.23 624.27 387.27 620.11 C 388.48 614.88 389.99 609.53 389.20 604.13 C 388.08 596.56 390.89 587.85 397.59 583.66 C 401.09 581.20 404.12 578.16 407.23 575.24 C 413.51 569.51 417.58 561.59 424.96 557.04 C 416.35 551.94 411.74 542.66 406.55 534.52 C 402.37 529.35 402.87 522.08 399.40 516.56 C 397.92 515.00 395.76 514.34 394.03 513.10 C 386.91 507.78 378.30 505.04 369.88 502.57 C 367.38 501.76 365.77 504.51 363.98 505.73 C 362.89 504.77 361.80 503.81 360.72 502.86 C 360.56 504.47 360.47 506.10 360.37 507.73 C 358.57 508.14 356.60 508.18 355.00 509.19 C 353.58 510.05 354.29 512.04 353.89 513.38 C 352.70 512.50 351.49 511.65 350.27 510.83 C 350.19 513.13 350.27 515.48 349.78 517.76 C 347.73 518.47 346.40 516.40 344.88 515.48 C 344.49 515.97 343.72 516.95 343.33 517.44 C 340.72 513.17 338.90 508.31 335.28 504.76 C 333.24 502.36 333.12 498.35 329.99 496.93 C 323.26 495.24 316.26 495.53 309.39 495.14 C 308.27 497.35 307.23 499.66 305.60 501.55 C 304.04 503.06 302.42 501.06 300.91 500.54 C 298.05 498.81 294.76 501.63 291.89 500.14 C 288.27 498.29 285.31 495.37 282.75 492.26 C 281.29 490.51 282.20 488.07 281.78 486.02 C 281.68 484.27 280.74 482.39 281.72 480.75 C 283.13 477.35 286.54 475.55 288.77 472.79 C 292.40 467.72 298.36 464.66 304.42 463.62 C 309.64 462.63 314.83 464.92 320.06 463.98 C 328.32 462.71 337.75 462.16 343.89 455.75 C 346.35 453.85 349.60 455.04 352.41 454.63 C 355.32 453.71 358.15 452.51 361.07 451.60 C 360.11 447.23 355.70 444.65 351.53 444.17 C 344.97 443.12 337.80 443.66 331.96 440.00 C 326.34 436.63 323.19 430.45 321.50 424.33 C 325.35 423.77 327.20 427.70 330.02 429.49 C 332.79 429.74 331.24 426.52 331.02 425.03 C 329.56 420.71 329.99 415.95 332.29 412.00 C 335.34 413.95 334.71 418.06 336.97 420.62 C 340.78 420.03 341.27 424.67 342.91 427.04 C 345.46 432.02 350.93 434.15 355.89 435.96 C 358.58 437.00 362.43 437.06 364.20 434.39 C 366.94 430.75 365.97 425.64 363.94 421.89 C 362.40 418.94 361.96 415.48 363.93 412.61 C 365.59 413.16 367.23 413.85 368.97 414.13 C 371.68 411.20 372.08 406.78 371.10 403.02 C 369.75 398.52 372.31 394.18 374.42 390.37 C 376.35 386.98 374.74 382.98 375.40 379.36 C 375.81 377.80 377.28 376.96 378.44 376.00 C 379.22 380.21 379.19 384.90 382.16 388.32 C 387.63 386.01 388.32 379.53 390.22 374.63 C 394.12 376.15 392.31 381.25 391.41 384.20 C 391.80 386.35 393.59 388.26 395.88 387.01 C 399.48 385.01 404.44 384.47 406.63 380.62 C 408.47 375.94 412.95 372.94 414.47 368.08 M 350.90 463.51 C 357.02 464.90 363.27 463.61 369.32 462.50 C 363.19 461.00 357.01 462.94 350.90 463.51 Z" />
</g>
<g id="#383637ff">
<path fill="#383637" opacity="1.00" d=" M 350.90 463.51 C 357.01 462.94 363.19 461.00 369.32 462.50 C 363.27 463.61 357.02 464.90 350.90 463.51 Z" />
</g>
</svg>
